<?xml version="1.0" standalone="no"?>
<!DOCTYPE svg PUBLIC "-//W3C//DTD SVG 20010904//EN"
 "http://www.w3.org/TR/2001/REC-SVG-20010904/DTD/svg10.dtd">
<svg version="1.0" xmlns="http://www.w3.org/2000/svg"
 width="500.000000pt" height="500.000000pt" viewBox="0 0 500.000000 500.000000"
 preserveAspectRatio="xMidYMid meet">

<g transform="translate(0.000000,500.000000) scale(0.100000,-0.100000)"
fill="#000000" stroke="none">
<path d="M1550 4167 c-14 -12 -42 -36 -63 -53 l-38 -31 139 -422 c116 -349
137 -421 123 -421 -10 0 -40 -7 -67 -17 -180 -60 -251 -221 -143 -324 47 -45
94 -62 175 -63 86 -1 185 49 231 117 59 88 62 74 -95 547 -78 234 -142 428
-142 430 0 3 62 4 137 2 153 -4 188 -15 238 -74 l28 -33 -6 35 c-15 73 -76
118 -192 140 -94 17 -175 62 -239 130 -30 33 -56 60 -58 60 -2 0 -14 -11 -28
-23z"/>
<path d="M2691 4066 c-54 -53 -72 -77 -66 -87 5 -8 34 -43 66 -79 61 -69 150
-202 192 -286 38 -75 92 -237 113 -339 25 -123 26 -394 1 -517 -48 -239 -146
-438 -315 -641 l-65 -79 74 -74 c40 -41 79 -74 86 -74 18 0 134 139 205 244
352 526 353 1228 2 1756 -67 101 -192 250 -208 249 -6 0 -44 -33 -85 -73z"/>
<path d="M2376 3745 l-78 -74 60 -76 c79 -97 124 -178 161 -290 62 -187 62
-393 0 -580 -37 -112 -82 -193 -161 -291 l-61 -75 44 -46 c24 -24 61 -58 82
-75 l38 -31 26 24 c95 89 223 314 268 472 104 368 10 787 -240 1065 -26 28
-50 52 -53 52 -4 -1 -42 -34 -86 -75z"/>
<path d="M2057 3432 l-79 -79 38 -49 c133 -175 133 -404 0 -578 l-38 -49 78
-78 c43 -44 81 -79 84 -79 3 0 26 26 52 58 57 70 110 175 134 262 21 79 24
250 5 330 -20 85 -94 229 -148 288 l-48 53 -78 -79z"/>
<path d="M1176 2011 c-16 -17 -13 -21 47 -74 62 -54 65 -56 81 -38 16 17 13
21 -47 74 -62 54 -65 56 -81 38z"/>
<path d="M1135 1598 c-26 -90 -50 -169 -52 -175 -4 -9 9 -13 45 -13 49 0 50 1
56 35 l7 35 64 0 c64 0 64 0 73 -32 8 -31 11 -33 55 -36 26 -2 47 1 47 5 0 4
-22 82 -49 173 l-49 165 -74 3 -75 3 -48 -163z m149 26 c9 -34 16 -65 16 -68
0 -3 -21 -6 -46 -6 -38 0 -45 3 -40 18 2 9 12 43 21 76 9 33 20 55 25 50 5 -5
16 -37 24 -70z"/>
<path d="M1550 1725 l0 -35 50 0 50 0 0 -140 0 -140 45 0 45 0 0 140 0 140 50
0 50 0 0 35 0 35 -145 0 -145 0 0 -35z"/>
<path d="M1880 1585 l0 -175 45 0 45 0 0 60 0 60 39 0 c40 0 40 0 62 -60 l22
-60 43 0 c24 0 44 2 44 5 0 3 -11 33 -25 67 l-25 62 20 21 c16 17 20 35 20 86
0 56 -4 69 -23 87 -21 20 -34 22 -145 22 l-122 0 0 -175z m195 65 l0 -45 -52
-3 -53 -3 0 51 0 51 53 -3 52 -3 0 -45z"/>
<path d="M2291 1728 c-22 -71 -91 -307 -91 -313 0 -3 21 -5 47 -3 44 3 47 5
55 36 9 32 9 32 73 32 l64 0 7 -35 c6 -34 7 -35 56 -35 42 0 49 2 44 18 -12
36 -96 326 -96 329 0 2 -33 3 -74 3 l-74 0 -11 -32z m108 -93 c7 -27 14 -58
17 -67 5 -15 -2 -18 -40 -18 -25 0 -46 3 -46 6 0 11 32 129 37 137 9 14 20 -5
32 -58z"/>
<path d="M2569 1698 c10 -35 30 -114 46 -176 l27 -113 81 3 81 3 36 145 c20
80 40 157 43 173 7 27 7 27 -43 27 -43 0 -50 -3 -55 -22 -3 -13 -14 -68 -26
-123 -25 -124 -28 -135 -38 -135 -5 0 -21 63 -36 140 l-28 140 -53 0 -53 0 18
-62z"/>
<path d="M2930 1585 l0 -175 130 0 130 0 0 35 0 35 -85 0 -85 0 0 40 0 40 81
0 80 0 -3 33 -3 32 -77 3 -78 3 0 29 0 30 85 0 85 0 0 35 0 35 -130 0 -130 0
0 -175z"/>
<path d="M3250 1585 l0 -175 45 0 45 0 0 61 0 60 42 -3 c41 -3 43 -5 64 -58
22 -55 22 -55 68 -58 l47 -3 -17 38 c-37 88 -38 93 -15 117 16 17 21 35 21 81
0 50 -4 63 -27 87 -26 28 -28 28 -150 28 l-123 0 0 -175z m199 101 c7 -8 11
-30 9 -48 -3 -33 -3 -33 -60 -36 l-58 -3 0 51 0 50 49 0 c30 0 53 -5 60 -14z"/>
<path d="M3622 1737 c-17 -18 -22 -36 -22 -78 0 -47 4 -59 28 -82 23 -23 37
-26 102 -29 l75 -3 0 -30 0 -30 -97 -3 -98 -3 0 -34 0 -35 118 0 c117 0 119 0
145 28 22 23 27 37 27 82 0 45 -5 59 -27 82 -25 26 -32 28 -104 28 -79 0 -96
9 -83 45 5 12 26 15 100 15 l94 0 0 35 0 35 -118 0 c-111 0 -120 -1 -140 -23z"/>
<path d="M1985 1268 c-11 -45 -1 -271 13 -276 9 -3 12 15 12 67 l0 71 50 0 49
0 3 -67 c2 -38 8 -68 13 -68 6 0 11 56 13 143 2 122 0 142 -13 142 -12 0 -15
-13 -15 -60 l0 -60 -50 0 -50 0 0 59 c0 61 -15 90 -25 49z"/>
<path d="M2512 1281 c-9 -6 -12 -44 -10 -144 4 -169 21 -188 29 -32 3 66 8
102 13 90 45 -121 83 -200 96 -200 12 0 16 22 18 125 3 131 -2 175 -18 165 -6
-3 -10 -54 -10 -113 0 -58 -4 -102 -8 -97 -5 6 -25 54 -46 107 -40 104 -45
111 -64 99z"/>
<path d="M1747 1262 c-14 -15 -17 -40 -17 -121 0 -131 11 -151 81 -151 43 0
51 3 61 25 13 28 4 45 -14 27 -7 -7 -32 -12 -55 -12 l-44 0 3 108 3 107 38 3
c21 2 45 -2 53 -9 20 -16 28 -5 14 20 -15 28 -99 30 -123 3z"/>
<path d="M2294 1253 c-4 -16 -19 -77 -34 -138 -15 -60 -26 -113 -23 -117 10
-17 22 -6 30 30 8 35 11 37 51 40 44 3 46 1 67 -62 3 -12 9 -16 15 -10 8 8 -5
71 -51 247 -12 46 -45 52 -55 10z m48 -78 c8 -35 13 -67 10 -70 -11 -11 -62
-5 -62 8 0 28 23 127 29 127 4 0 14 -29 23 -65z"/>
<path d="M2750 1265 c0 -10 10 -15 30 -15 l29 0 3 -127 c4 -169 22 -170 26 -1
l3 127 26 3 c15 2 28 9 31 16 3 9 -16 12 -72 12 -61 0 -76 -3 -76 -15z"/>
<path d="M2996 1258 c-38 -54 -3 -139 54 -130 37 5 60 -12 60 -47 0 -40 -11
-49 -65 -53 -36 -2 -50 -7 -50 -18 0 -11 13 -16 49 -18 66 -4 86 15 86 82 -1
66 -15 84 -71 88 l-44 3 0 40 0 40 53 3 c37 2 52 7 52 18 0 10 -14 14 -54 14
-45 0 -58 -4 -70 -22z"/>
</g>
</svg>
